<svg width="406" height="395" viewBox="0 0 406 395" fill="none" xmlns="http://www.w3.org/2000/svg">
<rect x="0.889404" y="0.613159" width="405" height="394" rx="197" fill="#13161B"/>
<path d="M106.659 103.754C105.983 101.574 107.264 99.2713 109.473 98.6971L247.543 62.8088C248.83 62.4742 250.199 62.8013 251.196 63.6814L296.965 104.086C299.305 106.151 298.484 109.98 295.504 110.905L129.098 162.554C126.988 163.209 124.747 162.03 124.092 159.92L106.659 103.754Z" fill="#D9D9D9"/>
<path d="M105.417 103.292C105.417 99.91 109.354 98.0543 111.963 100.207L145.417 127.807L170.847 147.585C171.836 148.355 172.407 149.543 172.391 150.795L170.027 330.439C169.983 333.801 166.063 335.612 163.475 333.466L131.917 307.307L106.828 286.005C105.933 285.245 105.417 284.13 105.417 282.955V103.292Z" fill="#4A90E2"/>
<path d="M107.279 286.819C104.91 284.825 105.607 281.011 108.529 279.985L249.822 230.367C250.842 230.009 251.963 230.078 252.93 230.56L297.176 252.587C300.033 254.009 300.155 258.04 297.39 259.633L167.796 334.306C166.339 335.146 164.511 334.984 163.224 333.9L107.279 286.819Z" fill="#D9D9D9"/>
<path d="M215.484 137.355C216.545 135.399 218.997 134.684 220.942 135.765L300.08 179.715C301.4 180.449 302.195 181.863 302.135 183.372L299.193 256.92C299.07 259.989 295.678 261.78 293.074 260.152L188.604 194.8C186.813 193.68 186.202 191.359 187.209 189.502L215.484 137.355Z" fill="#4A90E2"/>
<path d="M217.72 134.603C218.992 134.205 220.29 135.138 220.317 136.471L221.844 212.162C221.875 213.74 220.152 214.732 218.804 213.911L136.19 163.604C134.721 162.709 134.991 160.501 136.632 159.987L217.72 134.603Z" fill="#1E3969"/>
</svg>
